<svg width="228.873" height="296.112" viewBox="0 0 228.873 296.112" fill="none" xmlns="http://www.w3.org/2000/svg">
<g id="kara o queer">
<path d="M82.56 1.056C84.576 1.92 85.344 3.07199 85.344 4.128C85.344 5.75999 83.616 7.296 81.984 7.296C81.504 7.296 81.024 7.2 80.64 6.912C77.376 5.088 74.112 4.32 70.944 4.32C49.92 4.32 32.256 41.088 25.152 62.88C22.56 69.216 21.024 75.936 18.816 82.656C18.72 82.944 18.72 83.136 18.72 83.328C18.72 84.192 18.912 84.48 20.448 84.48C22.752 84.48 27.456 83.424 33.312 75.84C39.552 67.872 43.584 64.416 47.616 64.416C48.576 64.416 49.632 64.608 50.592 64.992C50.592 64.992 55.68 66.72 55.68 71.616C55.68 74.4 53.088 79.776 48.768 79.776C45.792 79.776 43.584 77.568 43.584 74.784C43.584 70.56 48.384 70.368 48.384 68.256C48.384 67.488 47.808 66.72 46.752 66.72C45.6 66.72 41.376 69.504 37.824 74.112C35.232 77.472 30.816 84.384 26.496 85.44C27.072 85.44 35.712 85.344 35.712 90.336C35.712 93.888 31.68 101.28 31.68 105.504C31.68 107.712 32.64 108.768 35.232 108.768C38.976 108.768 41.664 105.408 43.584 102.528C43.872 102.144 44.448 101.472 45.12 101.472C45.6 101.472 45.792 101.76 45.792 102.336C45.792 103.008 45.408 103.968 44.736 104.832C44.064 105.792 37.824 114.336 31.872 114.336C26.88 114.336 25.152 110.784 25.152 107.232C25.152 103.776 26.688 99.264 29.088 91.776C29.28 91.296 29.28 90.816 29.28 90.432C29.28 87.264 25.92 87.072 25.152 87.072C24.48 87.072 17.664 87.264 14.688 94.464C11.136 104.544 9.12 111.264 9.12 111.264C9.12 111.264 9.024 112.128 7.968 112.512C7.008 112.992 0.672 114.24 0.672 114.24C0.672 114.24 0 114.24 0 113.76C0 113.664 0 113.568 0.096 113.472C0.384 112.128 10.08 85.44 12.96 76.8C21.312 51.744 30.048 28.992 50.4 10.752C59.04 2.976 69.12 0 76.224 0C78.816 0 80.928 0.383995 82.56 1.056Z" fill="var(--fill-0, black)"/>
<path d="M95.5508 153.12C101.023 155.616 104.479 150.336 106.399 153.888C107.743 156.288 100.927 158.4 93.3428 155.424C79.4227 149.952 74.7187 127.872 85.2787 97.056C84.9907 97.056 84.9908 97.056 84.9908 97.056C82.6868 102.816 73.6628 113.472 65.0228 113.472C57.2468 113.472 53.8867 106.176 53.8867 100.224C53.8867 85.248 69.9187 63.84 82.2067 63.84C84.3187 63.84 91.7108 64.992 91.7108 74.976C91.7108 75.264 91.7108 75.648 91.7108 75.936C94.8788 67.296 98.0468 65.28 102.559 64.896C102.559 64.896 104.095 64.992 104.095 65.472C104.095 65.568 103.999 65.664 103.807 65.856C101.119 68.16 98.6227 76.416 98.6227 76.416C80.1908 124.32 83.5508 147.648 95.5508 153.12ZM67.1348 107.328C67.9028 107.52 68.6708 107.616 69.4388 107.616C81.8228 107.616 89.2148 84.576 89.2148 76.8C89.2148 70.848 87.1987 67.584 83.3587 67.584C74.4307 67.584 64.9268 83.904 63.0068 92.16C62.5268 94.368 62.1427 96.48 62.1427 98.592C62.1427 102.816 63.5828 106.464 67.1348 107.328Z" fill="var(--fill-0, black)"/>
<path d="M123.487 71.04C130.303 64.512 136.063 64.128 138.847 64.32C141.535 64.608 150.559 66.624 147.199 77.184C146.911 78.432 142.015 91.872 124.063 93.12C125.503 93.888 126.751 95.136 127.711 96.96C129.919 100.992 138.943 121.056 145.279 119.808C145.471 119.712 148.927 119.136 148.255 120.096C147.391 121.248 144.895 121.824 143.551 122.016C136.255 123.456 130.783 119.424 127.039 113.088C124.735 109.056 119.743 96.768 115.327 95.136C112.447 103.488 109.471 110.496 109.471 110.496C109.471 110.496 109.375 111.36 108.319 111.744C107.359 112.128 102.175 113.376 102.175 113.376C102.175 113.376 101.311 113.376 101.599 112.608C113.023 79.68 114.463 76.416 115.327 74.016C116.479 70.56 115.711 69.312 114.655 68.832C112.159 67.68 109.951 70.176 106.879 73.056C105.919 73.92 105.055 72.864 105.055 72.864C104.479 72.096 105.247 71.232 105.535 70.944C109.567 66.912 113.887 62.88 119.167 64.512C122.143 65.376 123.295 67.872 123.103 71.04H123.487ZM135.295 68.448C135.295 68.448 126.079 65.376 119.551 82.944C119.455 83.424 119.263 83.904 117.055 90.336C136.063 92.16 139.519 80.16 139.999 75.936C140.479 72.576 138.559 69.408 135.295 68.448Z" fill="var(--fill-0, black)"/>
<path d="M190.332 153.12C195.804 155.616 199.26 150.336 201.18 153.888C202.524 156.288 195.708 158.4 188.124 155.424C174.204 149.952 169.5 127.872 180.06 97.056C179.772 97.056 179.772 97.056 179.772 97.056C177.468 102.816 168.444 113.472 159.804 113.472C152.028 113.472 148.668 106.176 148.668 100.224C148.668 85.248 164.7 63.84 176.988 63.84C179.1 63.84 186.492 64.992 186.492 74.976C186.492 75.264 186.492 75.648 186.492 75.936C189.66 67.296 192.828 65.28 197.34 64.896C197.34 64.896 198.876 64.992 198.876 65.472C198.876 65.568 198.78 65.664 198.588 65.856C195.9 68.16 193.404 76.416 193.404 76.416C174.972 124.32 178.332 147.648 190.332 153.12ZM161.916 107.328C162.684 107.52 163.452 107.616 164.22 107.616C176.604 107.616 183.996 84.576 183.996 76.8C183.996 70.848 181.98 67.584 178.14 67.584C169.212 67.584 159.708 83.904 157.788 92.16C157.308 94.368 156.924 96.48 156.924 98.592C156.924 102.816 158.364 106.464 161.916 107.328Z" fill="var(--fill-0, black)"/>
<path d="M156.435 132.936C156.435 132.936 168.051 134.376 168.051 148.296C168.051 152.04 167.187 156.648 165.075 162.408C164.211 165.576 155.475 183.048 140.115 183.048C129.459 183.048 125.523 174.984 125.523 165.96C125.523 162.312 126.195 158.664 127.347 155.592C130.707 146.856 140.787 132.84 154.035 132.84C154.803 132.84 155.667 132.84 156.435 132.936ZM158.163 156.744C160.083 151.272 160.755 147.24 160.755 144.168C160.755 135.528 154.995 135.432 154.995 135.432C154.419 135.336 153.939 135.336 153.363 135.336C147.891 135.336 142.419 141 136.179 156.36C133.491 162.888 132.435 167.784 132.435 171.336C132.435 177.48 135.699 180.168 139.539 180.168C144.531 180.168 151.923 174.6 158.163 156.744Z" fill="var(--fill-0, black)"/>
<path d="M56.544 207.888C54.432 209.712 53.664 208.848 53.664 208.848C53.664 208.848 52.704 208.272 55.104 205.872C57.696 203.28 60.96 200.976 64.032 201.456C64.032 201.456 72.672 202.224 67.488 216.24C65.088 223.056 62.208 229.776 59.52 236.88C59.52 236.88 55.776 245.616 60.576 246.768C65.856 248.112 77.856 236.688 80.736 227.568L86.784 210.384C89.664 201.84 94.464 202.416 97.44 202.224C97.44 202.224 98.304 202.128 98.688 202.512C99.072 202.896 99.168 203.184 98.688 203.472C95.808 205.008 93.888 210.48 93.888 210.48L87.264 230.64C84.384 239.472 83.52 246.384 86.688 246.576C90.624 246.864 92.256 242.928 94.08 239.952C94.08 239.952 94.752 238.896 95.616 239.376C96.288 239.664 96.288 240.336 96.096 240.816C94.176 245.808 88.896 251.568 82.848 251.568C76.512 251.568 76.416 244.56 77.856 238.128H77.568C73.824 242.928 65.376 252.72 56.64 251.184C48 249.648 50.304 240.624 52.512 234.96C54.24 230.544 58.368 220.272 60.192 215.568C61.92 211.536 63.648 206.64 60.48 206.256C59.232 206.064 57.888 206.832 56.544 207.888ZM52.416 202.992C52.416 202.992 53.952 203.088 53.952 203.568C53.952 203.664 53.856 203.76 53.664 203.952C51.072 206.256 49.536 210.96 49.536 210.96L25.44 282.96C25.44 282.96 24.672 285.456 24.672 287.952C24.672 290.832 25.92 293.04 29.184 293.04C33.12 293.04 36.384 288.816 38.784 288.816C39.456 288.816 40.704 289.488 40.704 290.736C40.704 292.848 37.152 296.112 30.24 296.112C21.312 296.112 19.008 290.448 19.008 284.976C19.008 282.672 19.488 280.56 19.968 279.024C21.984 272.592 35.04 235.152 35.136 235.152C34.848 235.152 34.848 235.152 34.848 235.152C32.544 240.912 23.424 251.376 14.688 251.376C6.432 251.376 2.976 244.08 2.976 238.224C2.976 223.248 19.776 202.032 32.064 202.032C34.272 202.032 41.568 203.088 41.568 213.36C41.568 213.648 41.568 213.84 41.568 214.128C44.64 205.392 47.904 203.376 52.416 202.992ZM38.88 217.104C38.88 216.336 38.976 215.664 38.976 214.896C38.976 208.944 36.96 205.776 33.024 205.776C24.096 205.776 14.784 222.096 12.864 230.256C12.288 232.464 12 234.768 12 236.784C12 241.968 13.92 245.712 19.2 245.712C29.952 245.712 38.304 226.32 38.88 217.104Z" fill="var(--fill-0, black)"/>
<path d="M131.018 201.936C138.794 202.608 144.266 208.464 139.85 216.24C133.802 226.32 118.826 232.272 107.689 236.976C107.881 241.2 109.61 244.656 113.546 245.616C121.034 247.344 128.617 241.104 133.033 233.712C133.033 233.712 133.705 232.272 134.665 232.56C135.529 232.944 134.281 235.344 134.281 235.344C131.497 242.064 117.29 255.6 106.633 250.704C89.2575 242.64 105.386 212.304 121.418 204.144C124.298 202.512 128.618 201.84 131.018 201.936ZM134.09 215.28C136.97 208.368 134.281 202.32 126.41 205.488C116.809 210.192 110.09 223.344 108.362 230.448C108.074 231.696 107.881 233.04 107.785 234.288C112.681 232.272 117.77 230.064 122.282 227.28C131.498 221.52 134.09 215.28 134.09 215.28Z" fill="var(--fill-0, black)"/>
<path d="M172.174 201.936C179.95 202.608 185.422 208.464 181.006 216.24C174.958 226.32 159.982 232.272 148.846 236.976C149.038 241.2 150.766 244.656 154.702 245.616C162.19 247.344 169.774 241.104 174.19 233.712C174.19 233.712 174.862 232.272 175.822 232.56C176.686 232.944 175.438 235.344 175.438 235.344C172.654 242.064 158.446 255.6 147.79 250.704C130.414 242.64 146.542 212.304 162.574 204.144C165.454 202.512 169.774 201.84 172.174 201.936ZM175.246 215.28C178.126 208.368 175.438 202.32 167.566 205.488C157.966 210.192 151.246 223.344 149.518 230.448C149.23 231.696 149.038 233.04 148.942 234.288C153.838 232.272 158.926 230.064 163.438 227.28C172.654 221.52 175.246 215.28 175.246 215.28Z" fill="var(--fill-0, black)"/>
<path d="M204.018 209.04C210.834 202.512 216.594 202.128 219.378 202.32C222.066 202.608 231.09 204.624 227.73 215.184C227.442 216.432 222.546 229.872 204.594 231.12C206.034 231.888 207.282 233.136 208.242 234.96C210.45 238.992 219.474 259.056 225.81 257.808C226.002 257.712 229.458 257.136 228.786 258.096C227.922 259.248 225.426 259.824 224.082 260.016C216.786 261.456 211.314 257.424 207.57 251.088C205.266 247.056 200.274 234.768 195.858 233.136C192.978 241.488 190.002 248.496 190.002 248.496C190.002 248.496 189.906 249.36 188.85 249.744C187.89 250.128 182.706 251.376 182.706 251.376C182.706 251.376 181.842 251.376 182.13 250.608C193.554 217.68 194.994 214.416 195.858 212.016C197.01 208.56 196.242 207.312 195.186 206.832C192.69 205.68 190.482 208.176 187.41 211.056C186.45 211.92 185.586 210.864 185.586 210.864C185.01 210.096 185.778 209.232 186.066 208.944C190.098 204.912 194.418 200.88 199.698 202.512C202.674 203.376 203.826 205.872 203.634 209.04H204.018ZM215.826 206.448C215.826 206.448 206.61 203.376 200.082 220.944C199.986 221.424 199.794 221.904 197.586 228.336C216.594 230.16 220.05 218.16 220.53 213.936C221.01 210.576 219.09 207.408 215.826 206.448Z" fill="var(--fill-0, black)"/>
</g>
</svg>
