<svg width="353.014" height="203.496" viewBox="0 0 353.014 203.496" fill="none" xmlns="http://www.w3.org/2000/svg">
<g id="neon night">
<path d="M32.16 49.92C28.992 49.056 27.936 46.368 27.936 43.104C27.936 37.824 30.816 31.2 31.584 29.088C35.808 17.76 38.688 14.496 38.688 9.12C38.688 7.008 37.92 5.088 34.944 5.088C28.416 5.088 20.544 15.264 16.224 26.88C11.712 38.976 8.448 47.136 8.448 47.136C8.448 47.136 8.256 48 7.296 48.384C6.24 48.768 0.672 50.112 0.672 50.112C0.576 50.112 0 50.016 0 49.344C0.288 48.576 14.016 13.056 14.016 13.056C14.016 13.056 15.072 10.272 15.072 7.872C15.072 6.336 14.496 4.896 12.864 4.896C9.6 4.896 5.28 11.04 5.28 11.04C5.28 11.04 4.896 11.712 4.224 11.712C3.648 11.712 3.264 11.232 3.264 10.848C3.264 10.464 3.456 10.08 3.456 10.08C3.456 10.08 9.792 0 15.744 0C19.104 0 21.696 2.88 21.696 6.624C21.696 8.448 21.216 10.848 19.968 13.824H20.256C23.52 9.504 29.568 0.48 37.248 0.48C43.776 0.48 45.696 4.896 45.696 8.544C45.696 13.344 37.344 34.656 35.904 38.304C35.904 38.304 35.232 39.936 35.232 41.568C35.232 43.2 35.808 44.736 38.304 44.928C43.2 44.928 44.352 37.632 46.656 37.632C47.328 37.632 47.616 38.304 47.616 38.688C47.616 38.88 47.616 39.072 47.52 39.264C45.984 43.68 41.184 50.208 34.464 50.208C33.696 50.208 32.928 50.112 32.16 49.92Z" fill="var(--fill-0, black)"/>
<path d="M82.785 0.287996C90.561 0.959999 96.033 6.816 91.617 14.592C85.569 24.672 70.593 30.624 59.457 35.328C59.649 39.552 61.377 43.008 65.313 43.968C72.801 45.696 80.385 39.456 84.801 32.064C84.801 32.064 85.473 30.624 86.433 30.912C87.297 31.296 86.049 33.696 86.049 33.696C83.265 40.416 69.057 53.952 58.401 49.056C41.025 40.992 57.153 10.656 73.185 2.496C76.065 0.864 80.385 0.191998 82.785 0.287996ZM85.857 13.632C88.737 6.72 86.049 0.671997 78.177 3.84C68.577 8.544 61.857 21.696 60.129 28.8C59.841 30.048 59.649 31.392 59.553 32.64C64.449 30.624 69.537 28.416 74.049 25.632C83.265 19.872 85.857 13.632 85.857 13.632Z" fill="var(--fill-0, black)"/>
<path d="M124.421 0.287996C124.421 0.287996 136.037 1.728 136.037 15.648C136.037 19.392 135.173 24 133.061 29.76C132.197 32.928 123.461 50.4 108.101 50.4C97.4452 50.4 93.5092 42.336 93.5092 33.312C93.5092 29.664 94.1813 26.016 95.3333 22.944C98.6933 14.208 108.773 0.191998 122.021 0.191998C122.789 0.191998 123.653 0.191998 124.421 0.287996ZM126.149 24.096C128.069 18.624 128.741 14.592 128.741 11.52C128.741 2.88 122.981 2.784 122.981 2.784C122.405 2.688 121.925 2.688 121.349 2.688C115.877 2.688 110.405 8.352 104.165 23.712C101.477 30.24 100.421 35.136 100.421 38.688C100.421 44.832 103.685 47.52 107.525 47.52C112.517 47.52 119.909 41.952 126.149 24.096Z" fill="var(--fill-0, black)"/>
<path d="M169.785 49.92C166.617 49.056 165.561 46.368 165.561 43.104C165.561 37.824 168.441 31.2 169.209 29.088C173.433 17.76 176.313 14.496 176.313 9.12C176.313 7.008 175.545 5.088 172.569 5.088C166.041 5.088 158.169 15.264 153.849 26.88C149.337 38.976 146.073 47.136 146.073 47.136C146.073 47.136 145.881 48 144.921 48.384C143.865 48.768 138.297 50.112 138.297 50.112C138.201 50.112 137.625 50.016 137.625 49.344C137.913 48.576 151.641 13.056 151.641 13.056C151.641 13.056 152.697 10.272 152.697 7.872C152.697 6.336 152.121 4.896 150.489 4.896C147.225 4.896 142.905 11.04 142.905 11.04C142.905 11.04 142.521 11.712 141.849 11.712C141.273 11.712 140.889 11.232 140.889 10.848C140.889 10.464 141.081 10.08 141.081 10.08C141.081 10.08 147.417 0 153.369 0C156.729 0 159.321 2.88 159.321 6.624C159.321 8.448 158.841 10.848 157.593 13.824H157.881C161.145 9.504 167.193 0.48 174.873 0.48C181.401 0.48 183.321 4.896 183.321 8.544C183.321 13.344 174.969 34.656 173.529 38.304C173.529 38.304 172.857 39.936 172.857 41.568C172.857 43.2 173.433 44.736 175.929 44.928C180.825 44.928 181.977 37.632 184.281 37.632C184.953 37.632 185.241 38.304 185.241 38.688C185.241 38.88 185.241 39.072 185.145 39.264C183.609 43.68 178.809 50.208 172.089 50.208C171.321 50.208 170.553 50.112 169.785 49.92Z" fill="var(--fill-0, black)"/>
<path d="M93.0975 118.92C89.9295 118.056 88.8735 115.368 88.8735 112.104C88.8735 106.824 91.7535 100.2 92.5215 98.088C96.7455 86.76 99.6255 83.496 99.6255 78.12C99.6255 76.008 98.8575 74.088 95.8815 74.088C89.3535 74.088 81.4815 84.264 77.1615 95.88C72.6495 107.976 69.3855 116.136 69.3855 116.136C69.3855 116.136 69.1935 117 68.2335 117.384C67.1775 117.768 61.6095 119.112 61.6095 119.112C61.5135 119.112 60.9375 119.016 60.9375 118.344C61.2255 117.576 74.9535 82.056 74.9535 82.056C74.9535 82.056 76.0095 79.272 76.0095 76.872C76.0095 75.336 75.4335 73.896 73.8015 73.896C70.5375 73.896 66.2175 80.04 66.2175 80.04C66.2175 80.04 65.8335 80.712 65.1615 80.712C64.5855 80.712 64.2015 80.232 64.2015 79.848C64.2015 79.464 64.3935 79.08 64.3935 79.08C64.3935 79.08 70.7295 69 76.6815 69C80.0415 69 82.6335 71.88 82.6335 75.624C82.6335 77.448 82.1535 79.848 80.9055 82.824H81.1935C84.4575 78.504 90.5055 69.48 98.1855 69.48C104.714 69.48 106.633 73.896 106.633 77.544C106.633 82.344 98.2815 103.656 96.8415 107.304C96.8415 107.304 96.1695 108.936 96.1695 110.568C96.1695 112.2 96.7455 113.736 99.2415 113.928C104.138 113.928 105.289 106.632 107.593 106.632C108.266 106.632 108.554 107.304 108.554 107.688C108.554 107.88 108.554 108.072 108.457 108.264C106.921 112.68 102.122 119.208 95.4015 119.208C94.6335 119.208 93.8655 119.112 93.0975 118.92Z" fill="var(--fill-0, black)"/>
<path d="M117.994 75.432C117.13 76.008 116.459 76.2 115.979 76.2C114.827 76.2 114.923 75.528 114.923 75.336C114.923 73.512 121.162 69.288 125.482 69.288C131.53 69.288 133.451 73.032 133.451 76.392C133.451 79.272 132.203 82.824 131.051 85.704C124.139 102.216 122.41 110.088 122.41 110.472C122.41 112.008 123.179 113.832 125.867 113.832C129.707 113.832 131.338 110.28 133.258 107.304C133.258 107.304 133.739 106.632 134.411 106.632C135.083 106.632 135.37 107.208 135.37 107.592C135.37 107.784 135.371 107.976 135.275 108.168C133.163 113.544 127.402 119.112 121.258 119.112C115.978 119.112 114.442 115.944 114.442 112.776C114.442 108.456 122.794 89.16 124.522 83.304C124.522 83.304 126.155 79.368 126.155 76.392C126.155 74.856 125.579 73.224 123.947 73.224C122.123 73.224 120.01 74.28 117.994 75.432ZM133.835 61.416C131.051 61.416 128.555 59.016 128.555 56.136C128.555 53.352 131.051 50.856 133.835 50.856C136.619 50.856 139.115 53.352 139.115 56.136C139.115 59.016 136.619 61.416 133.835 61.416Z" fill="var(--fill-0, black)"/>
<path d="M173.129 123.912C185.801 123.912 221.033 128.136 221.033 148.68C221.033 163.56 208.841 178.632 196.937 183.144C196.169 183.528 195.113 183.72 194.249 183.72C192.713 183.72 191.369 183.144 191.369 181.608C191.369 176.616 199.337 179.976 206.345 173.928C211.241 169.416 217.769 159.336 217.769 149.64C217.769 130.728 186.377 127.08 172.457 126.792C161.993 159.624 142.409 190.44 107.081 200.52C101.513 202.152 94.4092 203.496 87.4972 203.496C74.2492 203.496 60.3292 197.352 60.3292 181.32C60.3292 176.424 61.9612 171.24 64.9372 166.728C78.3772 146.568 106.025 135.24 129.737 129.096C141.257 126.12 153.545 124.104 165.833 123.72C165.929 123.528 165.929 123.24 166.025 123.048C167.465 118.248 171.401 104.904 172.169 102.504C171.881 102.504 171.881 102.504 171.881 102.504C169.673 108.264 160.649 118.824 152.201 118.824C143.849 118.824 140.201 110.952 140.201 104.904C140.201 90.024 156.521 69.288 168.713 69.288C171.113 69.288 178.409 70.44 178.409 81.48C181.385 72.744 184.649 70.728 189.161 70.44C189.161 70.44 190.697 70.44 190.697 70.92C190.697 71.016 190.697 71.208 190.505 71.304C185.897 75.432 183.881 88.296 180.233 99.24L173.801 121.416C173.513 122.184 173.129 123.912 173.129 123.912ZM113.417 195.336C142.793 182.664 156.329 155.4 165.161 126.792C148.073 126.888 130.985 130.728 115.049 135.912C94.0252 142.728 63.7852 159.624 63.7852 180.936C63.7852 185.928 65.6092 190.632 69.1612 194.568C73.4812 198.888 80.3932 200.424 87.7852 200.424C97.5772 200.424 108.041 197.736 113.417 195.336ZM154.121 112.776C154.889 112.968 155.561 113.064 156.329 113.064C168.521 113.064 175.913 90.408 175.913 82.44C175.913 75.816 173.609 73.128 169.673 73.128C161.225 73.512 152.585 88.008 150.185 96.456C149.801 97.32 149.129 102.024 149.129 103.848C149.129 108.168 150.473 111.816 154.121 112.776Z" fill="var(--fill-0, black)"/>
<path d="M261.237 6.02399C277.365 6.02399 285.621 19.848 279.957 35.304C277.077 43.176 271.317 50.184 264.405 55.368C255.285 61.8 242.229 66.6 230.805 61.608C228.309 60.456 225.237 58.728 223.797 55.656C222.933 54.024 222.741 50.856 225.045 50.088C226.677 49.416 228.981 50.28 229.749 52.392C230.133 53.448 230.133 54.6 229.749 55.56C229.749 55.56 229.077 57.192 230.709 58.248C240.693 63.72 253.557 59.688 262.677 52.968C269.205 48.168 274.581 41.544 277.269 34.344C281.877 21.576 276.117 8.90399 261.237 8.90399C250.965 8.90399 240.693 14.568 233.781 21.384C220.629 34.632 211.605 64.68 209.301 71.88C207.957 75.72 206.421 80.328 205.269 83.784H205.461C205.557 83.688 205.653 83.496 205.749 83.4C209.685 78.408 218.133 68.808 226.485 70.728C235.029 72.744 232.821 81.288 230.613 86.952C229.077 90.888 225.525 99.72 223.509 104.808C221.205 110.952 222.645 114.12 224.757 114.216C228.693 114.408 230.229 110.568 231.957 107.592C231.957 107.592 232.629 106.632 233.493 107.016C234.261 107.304 234.165 107.976 233.973 108.552C232.245 113.448 227.157 119.304 221.109 119.304C214.581 119.304 212.661 114.408 215.925 104.904C218.037 98.28 221.013 91.944 223.509 85.128C223.509 85.128 227.349 76.296 222.453 75.048C218.997 74.184 212.661 78.888 207.861 84.744C206.997 85.8 206.325 86.856 205.557 87.912C201.813 93.768 199.701 101.256 197.493 108.36C194.325 117.096 191.061 119.112 186.549 119.496C186.549 119.496 184.245 119.4 185.205 118.536C187.797 116.232 189.429 111.528 189.429 111.528L201.333 75.624C208.341 53.64 216.981 35.592 228.885 22.056C238.869 10.728 253.269 6.02399 261.237 6.02399Z" fill="var(--fill-0, black)"/>
<path d="M351.671 47.112C352.535 48.552 353.014 50.28 353.014 52.104C353.014 55.656 351.19 59.592 347.734 62.28C346.583 63.144 342.934 64.872 341.014 64.872C340.63 64.872 340.247 64.776 340.247 64.584C340.247 64.392 340.919 64.008 341.879 63.24C345.239 60.744 347.543 56.904 347.543 53.256C347.543 51.912 347.159 50.568 346.487 49.32C341.975 41.448 330.167 38.664 315.383 38.664C300.791 38.664 282.071 41.64 268.727 47.304C268.055 49.224 267.478 51.144 267.478 51.144L251.926 98.088C250.198 103.176 249.047 107.4 249.143 110.376C249.143 112.488 249.718 114.024 251.158 114.024C255.19 114.024 256.631 110.472 258.551 107.4C258.551 107.4 259.031 106.728 259.703 106.728C260.375 106.728 260.663 107.208 260.663 107.592C260.663 107.88 260.662 108.072 260.566 108.264C258.646 113.256 253.366 119.016 247.318 119.016C242.326 119.016 240.887 116.232 240.887 112.68C240.887 109.224 242.23 105.288 243.286 102.12C243.958 100.104 245.783 94.44 248.087 87.624H247.99C248.662 85.8 248.951 83.016 248.951 80.424C248.951 72.648 247.51 69.288 247.51 67.272C247.51 57.288 257.015 50.568 261.719 48.168C264.887 41.16 268.054 37.704 272.086 37.32C272.086 37.32 273.719 37.416 273.719 37.896C273.719 37.704 270.935 41.352 269.783 44.52C283.703 39.144 300.695 35.784 316.439 35.784C329.111 35.784 345.815 37.704 351.671 47.112ZM251.35 77.832C255.094 66.792 259.415 54.792 260.663 51.144C256.151 54.12 250.295 58.92 250.007 66.408C250.007 68.904 250.966 71.112 251.35 77.832Z" fill="var(--fill-0, black)"/>
</g>
</svg>
