<svg width="395.08" height="264.168" viewBox="0 0 395.08 264.168" fill="none" xmlns="http://www.w3.org/2000/svg">
<g id="pool party">
<path d="M150.144 64.896C152.832 65.28 157.728 67.776 157.728 76.704C157.728 80.448 156.96 85.152 154.752 91.392C149.664 105.792 139.296 114.048 129.12 114.048C123.648 114.048 119.232 111.36 119.232 104.448H119.04C107.904 140.16 87.744 178.464 50.112 191.52C44.64 193.44 36.192 195.168 27.84 195.168C14.208 195.168 0 190.464 0 174.144C0 150.24 37.632 140.256 46.272 140.256C47.808 140.256 50.4 140.352 50.4 142.176C50.4 143.712 49.056 144.576 48.192 144.576C47.424 144.576 46.656 144.096 46.656 144.096C45.024 143.328 43.2 143.04 41.28 143.04C30.528 143.04 6.72001 154.56 6.72001 172.416C6.72001 187.392 20.832 192.576 33.12 192.576C38.4 192.576 43.68 191.712 47.904 190.272C81.984 178.656 99.648 141.792 110.592 110.112C115.008 96.288 122.496 74.016 122.496 71.808C122.496 69.792 120.96 69.216 119.904 69.216C117.888 69.216 115.968 71.328 113.472 73.728C113.184 74.016 112.896 74.112 112.704 74.112C111.456 74.112 111.456 73.056 111.456 72.96C111.456 72.384 111.936 71.904 112.128 71.616C115.392 68.256 118.944 64.8 123.168 64.8C127.584 64.8 129.12 67.296 129.12 70.656C129.12 72.864 128.544 75.36 127.68 77.76H127.968C135.168 66.816 143.808 64.8 148.32 64.8C148.992 64.8 149.664 64.8 150.144 64.896ZM146.4 91.392C148.512 85.536 149.568 80.64 149.568 76.896C149.568 71.424 147.744 69.12 144 69.12C140.736 69.12 134.016 70.944 127.584 83.712C125.376 88.032 122.208 96.864 122.208 103.296C122.208 108.576 124.704 111.648 128.448 111.648C134.208 111.648 141.696 103.968 146.4 91.392Z" fill="var(--fill-0, black)"/>
<path d="M192.033 64.608C192.033 64.608 203.649 66.048 203.649 79.968C203.649 83.712 202.785 88.32 200.673 94.08C199.809 97.248 191.073 114.72 175.713 114.72C165.057 114.72 161.121 106.656 161.121 97.632C161.121 93.984 161.793 90.336 162.945 87.264C166.305 78.528 176.385 64.512 189.633 64.512C190.401 64.512 191.265 64.512 192.033 64.608ZM193.761 88.416C195.681 82.944 196.353 78.912 196.353 75.84C196.353 67.2 190.593 67.104 190.593 67.104C190.017 67.008 189.537 67.008 188.961 67.008C183.489 67.008 178.017 72.672 171.777 88.032C169.089 94.56 168.033 99.456 168.033 103.008C168.033 109.152 171.297 111.84 175.137 111.84C180.129 111.84 187.521 106.272 193.761 88.416Z" fill="var(--fill-0, black)"/>
<path d="M237.877 64.608C237.877 64.608 249.493 66.048 249.493 79.968C249.493 83.712 248.629 88.32 246.517 94.08C245.653 97.248 236.917 114.72 221.557 114.72C210.901 114.72 206.965 106.656 206.965 97.632C206.965 93.984 207.637 90.336 208.789 87.264C212.149 78.528 222.229 64.512 235.477 64.512C236.245 64.512 237.109 64.512 237.877 64.608ZM239.605 88.416C241.525 82.944 242.197 78.912 242.197 75.84C242.197 67.2 236.437 67.104 236.437 67.104C235.861 67.008 235.381 67.008 234.805 67.008C229.333 67.008 223.861 72.672 217.621 88.032C214.933 94.56 213.877 99.456 213.877 103.008C213.877 109.152 217.141 111.84 220.981 111.84C225.973 111.84 233.365 106.272 239.605 88.416Z" fill="var(--fill-0, black)"/>
<path d="M257.033 114.144C253.481 113.376 251.657 110.976 251.657 107.136C251.657 105.504 251.945 103.392 252.713 101.28C268.841 53.184 278.345 28.128 297.737 10.752C306.473 2.976 316.553 0 323.657 0C329.513 0 332.681 2.01599 332.681 4.128C332.681 5.75999 331.049 7.296 329.417 7.296C328.937 7.296 328.457 7.19999 328.073 6.91199C324.905 4.99199 321.737 4.128 318.569 4.128C298.313 4.128 279.592 41.088 272.488 62.88C267.688 75.552 260.393 100.896 259.913 102.528C259.913 102.528 259.432 103.968 259.432 105.504C259.432 107.328 260.105 109.344 262.889 109.536C267.593 109.536 268.841 101.856 271.049 101.856C271.721 101.856 272.105 102.432 272.105 102.816C272.105 103.008 272.105 103.2 272.009 103.392C270.377 107.904 265.288 114.336 258.76 114.336C258.184 114.336 257.609 114.24 257.033 114.144Z" fill="var(--fill-0, black)"/>
<path d="M211.082 133.896C213.77 134.28 218.666 136.776 218.666 145.704C218.666 149.448 217.898 154.152 215.69 160.392C210.602 174.792 200.234 183.048 190.058 183.048C184.586 183.048 180.17 180.36 180.17 173.448H179.978C168.842 209.16 148.682 247.464 111.05 260.52C105.578 262.44 97.1295 264.168 88.7775 264.168C75.1455 264.168 60.9375 259.464 60.9375 243.144C60.9375 219.24 98.5695 209.256 107.21 209.256C108.746 209.256 111.338 209.352 111.338 211.176C111.338 212.712 109.994 213.576 109.13 213.576C108.362 213.576 107.594 213.096 107.594 213.096C105.962 212.328 104.138 212.04 102.218 212.04C91.4655 212.04 67.6575 223.56 67.6575 241.416C67.6575 256.392 81.7695 261.576 94.0575 261.576C99.3375 261.576 104.618 260.712 108.842 259.272C142.922 247.656 160.586 210.792 171.53 179.112C175.946 165.288 183.434 143.016 183.434 140.808C183.434 138.792 181.898 138.216 180.842 138.216C178.826 138.216 176.906 140.328 174.41 142.728C174.122 143.016 173.834 143.112 173.642 143.112C172.394 143.112 172.394 142.056 172.394 141.96C172.394 141.384 172.874 140.904 173.066 140.616C176.33 137.256 179.882 133.8 184.106 133.8C188.522 133.8 190.058 136.296 190.058 139.656C190.058 141.864 189.482 144.36 188.618 146.76H188.906C196.106 135.816 204.746 133.8 209.258 133.8C209.93 133.8 210.602 133.8 211.082 133.896ZM207.338 160.392C209.45 154.536 210.506 149.64 210.506 145.896C210.506 140.424 208.682 138.12 204.938 138.12C201.674 138.12 194.954 139.944 188.522 152.712C186.314 157.032 183.146 165.864 183.146 172.296C183.146 177.576 185.642 180.648 189.386 180.648C195.146 180.648 202.634 172.968 207.338 160.392Z" fill="var(--fill-0, black)"/>
<path d="M263.243 222.792C268.715 225.288 272.171 220.008 274.091 223.56C275.435 225.96 268.619 228.072 261.035 225.096C247.115 219.624 242.411 197.544 252.971 166.728C252.683 166.728 252.683 166.728 252.683 166.728C250.379 172.488 241.355 183.144 232.715 183.144C224.939 183.144 221.579 175.848 221.579 169.896C221.579 154.92 237.611 133.512 249.899 133.512C252.011 133.512 259.402 134.664 259.402 144.648C259.402 144.936 259.402 145.32 259.402 145.608C262.57 136.968 265.739 134.952 270.251 134.568C270.251 134.568 271.786 134.664 271.786 135.144C271.786 135.24 271.691 135.336 271.499 135.528C268.811 137.832 266.315 146.088 266.315 146.088C247.883 193.992 251.243 217.32 263.243 222.792ZM234.827 177C235.595 177.192 236.363 177.288 237.131 177.288C249.515 177.288 256.906 154.248 256.906 146.472C256.906 140.52 254.891 137.256 251.051 137.256C242.123 137.256 232.619 153.576 230.699 161.832C230.219 164.04 229.835 166.152 229.835 168.264C229.835 172.488 231.275 176.136 234.827 177Z" fill="var(--fill-0, black)"/>
<path d="M291.178 140.712C297.994 134.184 303.755 133.8 306.539 133.992C309.227 134.28 318.251 136.296 314.891 146.856C314.603 148.104 309.707 161.544 291.755 162.792C293.195 163.56 294.442 164.808 295.402 166.632C297.61 170.664 306.635 190.728 312.971 189.48C313.163 189.384 316.618 188.808 315.947 189.768C315.083 190.92 312.587 191.496 311.243 191.688C303.947 193.128 298.474 189.096 294.73 182.76C292.427 178.728 287.434 166.44 283.018 164.808C280.138 173.16 277.163 180.168 277.163 180.168C277.163 180.168 277.066 181.032 276.01 181.416C275.05 181.8 269.867 183.048 269.867 183.048C269.867 183.048 269.002 183.048 269.29 182.28C280.714 149.352 282.154 146.088 283.018 143.688C284.17 140.232 283.402 138.984 282.346 138.504C279.85 137.352 277.642 139.848 274.57 142.728C273.61 143.592 272.747 142.536 272.747 142.536C272.171 141.768 272.939 140.904 273.227 140.616C277.259 136.584 281.579 132.552 286.859 134.184C289.835 135.048 290.986 137.544 290.794 140.712H291.178ZM302.987 138.12C302.987 138.12 293.771 135.048 287.243 152.616C287.147 153.096 286.955 153.576 284.747 160.008C303.755 161.832 307.211 149.832 307.691 145.608C308.171 142.248 306.251 139.08 302.987 138.12Z" fill="var(--fill-0, black)"/>
<path d="M355.336 136.488C354.088 136.488 338.632 136.488 337.96 136.488C337.288 136.488 337.192 137.064 337.192 137.064L328.648 162.696C326.92 167.688 325.96 172.104 325.96 174.984C325.96 177.384 326.632 178.536 328.36 178.536C331.912 178.536 333.64 174.792 335.368 172.008C335.368 172.008 335.944 171.24 336.616 171.24C337.192 171.24 337.48 171.816 337.48 172.104C337.48 172.296 337.384 172.584 337.288 172.872C335.368 177.768 330.088 183.624 324.04 183.624C319.144 183.624 317.608 180.84 317.608 177.192C317.608 173.832 318.952 169.8 320.008 166.728C320.968 163.848 323.944 154.632 327.112 145.128C327.784 142.92 328.168 141.288 328.168 140.136C328.168 134.376 324.232 138.024 324.232 134.856C324.232 131.592 331.048 134.184 331.528 132.552C333.736 125.64 335.752 120.36 335.656 120.36C339.016 111.72 342.568 109.704 346.984 109.32C346.984 109.32 348.616 109.416 348.616 109.896C348.616 109.992 348.52 110.184 348.328 110.28C345.256 112.584 342.472 120.84 342.472 120.84C342.664 121.032 338.632 131.88 338.632 132.84C338.632 133.32 356.2 133.128 359.848 133.128C364.36 133.128 365.704 136.104 365.704 139.752C365.704 142.536 364.936 145.8 364.072 148.296C361.768 155.208 358.888 162.12 356.104 169.128C355.528 170.472 354.664 172.872 354.664 175.176C354.664 177.48 355.432 179.4 358.024 179.4C363.784 179.4 371.272 171.048 374.248 166.44C378.184 160.296 380.104 152.808 382.504 145.608C385.48 136.776 389.128 134.664 393.544 134.28C393.544 134.28 395.08 134.376 395.08 134.952C395.08 135.048 395.08 135.144 394.888 135.336C392.296 137.64 390.568 142.44 390.568 142.44L377.32 182.568C371.368 203.592 356.488 230.088 330.088 230.088C319.72 230.088 307.144 223.944 307.144 212.04C307.144 195.24 331.048 189.672 337.48 189.672C338.92 189.672 341.128 190.056 341.128 191.688C341.128 193.224 339.88 193.992 338.92 193.992C337.384 193.992 335.368 192.744 332.584 192.744C323.944 192.744 314.536 201.096 314.536 210.216C314.536 220.584 323.848 226.92 334.12 226.92C358.984 226.92 370.12 183.624 374.536 170.472C370.12 175.464 363.208 184.008 355.432 184.008C348.808 184.008 346.792 179.88 346.792 176.136C346.792 170.088 352.552 157.896 356.776 147.624C357.64 145.416 358.792 142.344 358.792 139.944C358.792 138.024 357.928 136.488 355.336 136.488Z" fill="var(--fill-0, black)"/>
</g>
</svg>
