<svg width="397.462" height="282.536" viewBox="0 0 397.462 282.536" fill="none" xmlns="http://www.w3.org/2000/svg">
<g id="special lunch">
<path d="M112.545 74.496C111.777 77.856 107.361 81.408 103.905 78.528C102.753 77.568 102.177 76.224 102.273 74.784C102.273 73.056 103.233 71.424 104.481 70.56C104.673 70.464 104.769 70.368 104.961 70.272C105.537 69.888 106.401 69.12 105.729 68.256C104.865 66.816 102.753 66.432 100.737 66.432C99.105 66.432 94.401 67.104 91.905 71.616C79.713 91.488 100.065 128.256 88.737 147.168C86.625 150.72 80.865 158.784 69.825 158.784C61.569 158.784 53.697 155.424 56.673 144.768C57.729 141.792 60.321 140.64 62.433 140.64C63.969 140.736 64.737 141.408 65.505 142.56C67.425 145.248 61.377 148.992 64.065 152.832C65.601 154.944 67.329 155.712 70.209 155.616C73.953 155.52 78.177 152.544 81.057 147.744C92.769 128.736 74.433 91.296 82.689 75.456C87.681 65.664 96.513 64.128 101.985 64.128C104.097 64.128 114.657 64.512 112.545 74.496Z" fill="var(--fill-0, black)"/>
<path d="M150.144 64.896C152.832 65.28 157.728 67.776 157.728 76.704C157.728 80.448 156.96 85.152 154.752 91.392C149.664 105.792 139.296 114.048 129.12 114.048C123.648 114.048 119.232 111.36 119.232 104.448H119.04C107.904 140.16 87.744 178.464 50.112 191.52C44.64 193.44 36.192 195.168 27.84 195.168C14.208 195.168 0 190.464 0 174.144C0 150.24 37.632 140.256 46.272 140.256C47.808 140.256 50.4 140.352 50.4 142.176C50.4 143.712 49.056 144.576 48.192 144.576C47.424 144.576 46.656 144.096 46.656 144.096C45.024 143.328 43.2 143.04 41.28 143.04C30.528 143.04 6.72001 154.56 6.72001 172.416C6.72001 187.392 20.832 192.576 33.12 192.576C38.4 192.576 43.68 191.712 47.904 190.272C81.984 178.656 99.648 141.792 110.592 110.112C115.008 96.288 122.496 74.016 122.496 71.808C122.496 69.792 120.96 69.216 119.904 69.216C117.888 69.216 115.968 71.328 113.472 73.728C113.184 74.016 112.896 74.112 112.704 74.112C111.456 74.112 111.456 73.056 111.456 72.96C111.456 72.384 111.936 71.904 112.128 71.616C115.392 68.256 118.944 64.8 123.168 64.8C127.584 64.8 129.12 67.296 129.12 70.656C129.12 72.864 128.544 75.36 127.68 77.76H127.968C135.168 66.816 143.808 64.8 148.32 64.8C148.992 64.8 149.664 64.8 150.144 64.896ZM146.4 91.392C148.512 85.536 149.568 80.64 149.568 76.896C149.568 71.424 147.744 69.12 144 69.12C140.736 69.12 134.016 70.944 127.584 83.712C125.376 88.032 122.208 96.864 122.208 103.296C122.208 108.576 124.704 111.648 128.448 111.648C134.208 111.648 141.696 103.968 146.4 91.392Z" fill="var(--fill-0, black)"/>
<path d="M191.553 64.608C199.329 65.28 204.801 71.136 200.385 78.912C194.337 88.992 179.361 94.944 168.225 99.648C168.417 103.872 170.145 107.328 174.081 108.288C181.569 110.016 189.153 103.776 193.569 96.384C193.569 96.384 194.241 94.944 195.201 95.232C196.065 95.616 194.817 98.016 194.817 98.016C192.033 104.736 177.825 118.272 167.169 113.376C149.793 105.312 165.921 74.976 181.953 66.816C184.833 65.184 189.153 64.512 191.553 64.608ZM194.625 77.952C197.505 71.04 194.817 64.992 186.945 68.16C177.345 72.864 170.625 86.016 168.897 93.12C168.609 94.368 168.417 95.712 168.321 96.96C173.217 94.944 178.305 92.736 182.817 89.952C192.033 84.192 194.625 77.952 194.625 77.952Z" fill="var(--fill-0, black)"/>
<path d="M232.037 71.52C234.533 70.752 235.013 70.176 235.013 69.408C235.013 68.736 234.533 67.584 231.557 67.584C230.405 67.584 228.773 67.776 227.045 68.64C215.525 74.592 209.765 91.968 209.765 97.632C209.765 103.872 213.221 108.576 219.653 108.576C226.085 108.576 231.173 102.912 234.629 96.384C234.629 96.384 235.109 95.232 235.877 95.232C236.357 95.232 236.549 95.616 236.549 96.096C236.549 100.8 225.989 114.336 215.237 114.336C205.541 114.336 201.413 105.984 201.413 99.264C201.413 84 216.677 64.704 230.501 64.704C239.717 64.704 241.733 71.136 241.733 72.96C241.733 79.008 238.373 80.64 235.589 80.64C230.885 80.64 229.349 77.28 229.349 75.648C229.349 73.632 230.885 71.904 232.037 71.52Z" fill="var(--fill-0, black)"/>
<path d="M247.575 70.752C246.711 71.328 246.039 71.52 245.559 71.52C244.407 71.52 244.503 70.848 244.503 70.656C244.503 68.832 250.743 64.608 255.063 64.608C261.111 64.608 263.031 68.352 263.031 71.712C263.031 74.592 261.783 78.144 260.631 81.024C253.719 97.536 251.991 105.408 251.991 105.792C251.991 107.328 252.759 109.152 255.447 109.152C259.287 109.152 260.919 105.6 262.839 102.624C262.839 102.624 263.319 101.952 263.991 101.952C264.663 101.952 264.951 102.528 264.951 102.912C264.951 103.104 264.951 103.296 264.855 103.488C262.743 108.864 256.983 114.432 250.839 114.432C245.559 114.432 244.023 111.264 244.023 108.096C244.023 103.776 252.375 84.48 254.103 78.624C254.103 78.624 255.735 74.688 255.735 71.712C255.735 70.176 255.159 68.544 253.527 68.544C251.703 68.544 249.591 69.6 247.575 70.752ZM263.415 56.736C260.631 56.736 258.135 54.336 258.135 51.456C258.135 48.672 260.631 46.176 263.415 46.176C266.199 46.176 268.695 48.672 268.695 51.456C268.695 54.336 266.199 56.736 263.415 56.736Z" fill="var(--fill-0, black)"/>
<path d="M310.774 153.792C316.246 156.288 319.702 151.008 321.622 154.56C322.966 156.96 316.15 159.072 308.566 156.096C294.646 150.624 289.942 128.544 300.502 97.728C300.214 97.728 300.214 97.728 300.214 97.728C297.91 103.488 288.886 114.144 280.246 114.144C272.47 114.144 269.11 106.848 269.11 100.896C269.11 85.92 285.142 64.512 297.43 64.512C299.542 64.512 306.934 65.664 306.934 75.648C306.934 75.936 306.934 76.32 306.934 76.608C310.102 67.968 313.27 65.952 317.782 65.568C317.782 65.568 319.318 65.664 319.318 66.144C319.318 66.24 319.222 66.336 319.03 66.528C316.342 68.832 313.846 77.088 313.846 77.088C295.414 124.992 298.774 148.32 310.774 153.792ZM282.358 108C283.126 108.192 283.894 108.288 284.662 108.288C297.046 108.288 304.438 85.248 304.438 77.472C304.438 71.52 302.422 68.256 298.582 68.256C289.654 68.256 280.15 84.576 278.23 92.832C277.75 95.04 277.366 97.152 277.366 99.264C277.366 103.488 278.806 107.136 282.358 108Z" fill="var(--fill-0, black)"/>
<path d="M321.814 114.144C318.262 113.376 316.438 110.976 316.438 107.136C316.438 105.504 316.726 103.392 317.494 101.28C333.622 53.184 343.126 28.128 362.518 10.752C371.254 2.976 381.334 0 388.438 0C394.294 0 397.462 2.01599 397.462 4.128C397.462 5.75999 395.83 7.296 394.198 7.296C393.718 7.296 393.238 7.19999 392.854 6.91199C389.686 4.99199 386.518 4.128 383.35 4.128C363.094 4.128 344.374 41.088 337.27 62.88C332.47 75.552 325.174 100.896 324.694 102.528C324.694 102.528 324.214 103.968 324.214 105.504C324.214 107.328 324.886 109.344 327.67 109.536C332.374 109.536 333.622 101.856 335.83 101.856C336.502 101.856 336.886 102.432 336.886 102.816C336.886 103.008 336.886 103.2 336.79 103.392C335.158 107.904 330.07 114.336 323.542 114.336C322.966 114.336 322.39 114.24 321.814 114.144Z" fill="var(--fill-0, black)"/>
<path d="M142.283 239.144C138.731 238.376 136.907 235.976 136.907 232.136C136.907 230.504 137.195 228.392 137.963 226.28C154.091 178.184 163.595 153.128 182.987 135.752C191.723 127.976 201.803 125 208.907 125C214.763 125 217.931 127.016 217.931 129.128C217.931 130.76 216.299 132.296 214.667 132.296C214.187 132.296 213.707 132.2 213.323 131.912C210.155 129.992 206.987 129.128 203.819 129.128C183.563 129.128 164.843 166.088 157.739 187.88C152.939 200.552 145.643 225.896 145.163 227.528C145.163 227.528 144.683 228.968 144.683 230.504C144.683 232.328 145.355 234.344 148.139 234.536C152.843 234.536 154.091 226.856 156.299 226.856C156.971 226.856 157.355 227.432 157.355 227.816C157.355 228.008 157.355 228.2 157.259 228.392C155.627 232.904 150.539 239.336 144.011 239.336C143.435 239.336 142.859 239.24 142.283 239.144Z" fill="var(--fill-0, black)"/>
<path d="M204.397 198.152C194.221 224.552 190.189 243.56 190.189 256.616C190.189 270.536 195.469 279.464 202.957 279.464C205.453 279.464 207.373 278.312 208.813 278.312C209.389 278.312 210.925 278.792 210.925 280.136C210.925 281.48 208.525 282.536 205.069 282.536C192.109 282.536 183.757 271.304 183.757 252.776C183.757 245 185.197 235.88 188.365 225.8H188.077C184.621 230.312 177.037 239.048 168.973 239.048C162.829 239.048 161.005 235.208 161.005 231.464C161.005 223.208 172.717 202.376 172.717 196.232C172.717 194.888 172.141 193.928 170.605 193.928C167.341 193.928 162.925 199.976 162.925 199.976C162.925 199.976 162.541 200.648 161.869 200.648C161.293 200.648 160.909 200.168 160.909 199.784C160.909 199.4 161.101 199.016 161.101 199.016C161.101 199.016 167.725 189.032 173.677 189.032C173.965 189.032 174.253 189.128 174.541 189.128C174.541 189.128 179.629 189.608 179.629 196.136C179.629 202.376 173.677 215.048 170.029 224.552C170.029 224.552 168.589 227.816 168.589 230.6C168.589 232.616 169.357 234.536 171.949 234.536C177.613 234.536 188.557 223.88 191.245 215.24L197.293 198.056C200.269 189.608 204.877 190.088 207.949 189.896C208.237 189.896 209.485 189.992 209.485 190.76C209.485 190.856 209.389 191.048 209.197 191.144C206.317 192.68 204.397 198.152 204.397 198.152Z" fill="var(--fill-0, black)"/>
<path d="M237.116 239.24C233.948 238.376 232.892 235.688 232.892 232.424C232.892 227.144 235.772 220.52 236.54 218.408C240.764 207.08 243.644 203.816 243.644 198.44C243.644 196.328 242.876 194.408 239.9 194.408C233.372 194.408 225.5 204.584 221.18 216.2C216.668 228.296 213.404 236.456 213.404 236.456C213.404 236.456 213.212 237.32 212.252 237.704C211.196 238.088 205.628 239.432 205.628 239.432C205.532 239.432 204.956 239.336 204.956 238.664C205.244 237.896 218.972 202.376 218.972 202.376C218.972 202.376 220.028 199.592 220.028 197.192C220.028 195.656 219.452 194.216 217.82 194.216C214.556 194.216 210.236 200.36 210.236 200.36C210.236 200.36 209.852 201.032 209.18 201.032C208.604 201.032 208.22 200.552 208.22 200.168C208.22 199.784 208.412 199.4 208.412 199.4C208.412 199.4 214.748 189.32 220.7 189.32C224.06 189.32 226.652 192.2 226.652 195.944C226.652 197.768 226.172 200.168 224.924 203.144H225.212C228.476 198.824 234.524 189.8 242.204 189.8C248.732 189.8 250.652 194.216 250.652 197.864C250.652 202.664 242.3 223.976 240.86 227.624C240.86 227.624 240.188 229.256 240.188 230.888C240.188 232.52 240.764 234.056 243.26 234.248C248.156 234.248 249.308 226.952 251.612 226.952C252.284 226.952 252.572 227.624 252.572 228.008C252.572 228.2 252.572 228.392 252.476 228.584C250.94 233 246.14 239.528 239.42 239.528C238.652 239.528 237.884 239.432 237.116 239.24Z" fill="var(--fill-0, black)"/>
<path d="M287.069 196.52C289.565 195.752 290.044 195.176 290.044 194.408C290.044 193.736 289.565 192.584 286.589 192.584C285.437 192.584 283.805 192.776 282.077 193.64C270.557 199.592 264.797 216.968 264.797 222.632C264.797 228.872 268.253 233.576 274.685 233.576C281.117 233.576 286.205 227.912 289.661 221.384C289.661 221.384 290.141 220.232 290.909 220.232C291.389 220.232 291.581 220.616 291.581 221.096C291.581 225.8 281.02 239.336 270.268 239.336C260.572 239.336 256.445 230.984 256.445 224.264C256.445 209 271.709 189.704 285.533 189.704C294.749 189.704 296.764 196.136 296.764 197.96C296.764 204.008 293.405 205.64 290.621 205.64C285.917 205.64 284.38 202.28 284.38 200.648C284.38 198.632 285.917 196.904 287.069 196.52Z" fill="var(--fill-0, black)"/>
<path d="M370.286 126.344C386.414 126.344 394.67 140.168 389.006 155.624C386.126 163.496 380.366 170.504 373.454 175.688C364.334 182.12 351.278 186.92 339.854 181.928C337.358 180.776 334.286 179.048 332.846 175.976C331.982 174.344 331.79 171.176 334.094 170.408C335.726 169.736 338.03 170.6 338.798 172.712C339.182 173.768 339.182 174.92 338.798 175.88C338.798 175.88 338.126 177.512 339.758 178.568C349.742 184.04 362.606 180.008 371.726 173.288C378.254 168.488 383.63 161.864 386.318 154.664C390.926 141.896 385.166 129.224 370.286 129.224C360.014 129.224 349.742 134.888 342.83 141.704C329.678 154.952 320.654 185 318.35 192.2C317.006 196.04 315.47 200.648 314.318 204.104H314.51C314.606 204.008 314.702 203.816 314.798 203.72C318.734 198.728 327.182 189.128 335.534 191.048C344.078 193.064 341.87 201.608 339.662 207.272C338.126 211.208 334.574 220.04 332.558 225.128C330.254 231.272 331.694 234.44 333.806 234.536C337.742 234.728 339.278 230.888 341.006 227.912C341.006 227.912 341.678 226.952 342.542 227.336C343.31 227.624 343.214 228.296 343.022 228.872C341.294 233.768 336.206 239.624 330.158 239.624C323.63 239.624 321.71 234.728 324.974 225.224C327.086 218.6 330.062 212.264 332.558 205.448C332.558 205.448 336.398 196.616 331.502 195.368C328.046 194.504 321.71 199.208 316.91 205.064C316.046 206.12 315.374 207.176 314.606 208.232C310.862 214.088 308.75 221.576 306.542 228.68C303.374 237.416 300.11 239.432 295.598 239.816C295.598 239.816 293.294 239.72 294.254 238.856C296.846 236.552 298.478 231.848 298.478 231.848L310.382 195.944C317.39 173.96 326.03 155.912 337.934 142.376C347.918 131.048 362.318 126.344 370.286 126.344Z" fill="var(--fill-0, black)"/>
</g>
</svg>
