<svg width="167.405" height="193.667" viewBox="0 0 167.405 193.667" fill="none" xmlns="http://www.w3.org/2000/svg">
<g id="Safi">
<path d="M81.8073 10.7751C75.0873 2.99907 64.3353 1.94306 53.9673 3.19106C42.5433 4.63106 26.3193 13.5591 26.0313 34.3911C25.2633 60.8871 59.0553 67.2231 55.1193 91.7031C52.8153 106.775 36.2073 113.783 28.4313 114.935C18.7353 116.471 7.79132 112.055 8.17532 100.247C8.46332 91.7031 14.5113 83.4471 21.9033 78.4551C26.7993 74.9991 32.7513 72.6951 39.0873 72.6951C29.3913 63.0951 15.9513 51.4791 18.9273 31.5111C22.1913 9.33507 42.0633 2.23107 53.5833 0.59907C64.1433 -0.936933 76.7193 0.0230656 84.0153 8.95107C87.2793 12.7911 88.8153 17.5911 88.6233 22.8711C88.4313 28.1511 86.5113 33.8151 82.7673 39.4791C77.1033 47.6391 67.1193 55.0311 56.7513 53.5911C56.7513 53.5911 52.8153 53.3031 54.1593 50.0391C55.0233 48.0231 57.4233 48.5991 57.4233 48.5991C59.3433 48.9831 60.2073 51.1911 62.9913 50.6151C69.8073 49.1751 76.3353 43.7991 80.3673 37.8471C83.8233 32.6631 85.5513 27.5751 85.7433 22.8711C85.9353 18.2631 84.4953 14.1351 81.8073 10.7751ZM42.1593 75.9591C35.8233 74.7111 29.1033 76.9191 23.4393 80.8551C17.2953 85.0791 11.3433 92.1831 11.0553 100.247C10.6713 109.847 21.0393 113.495 29.6793 111.767C38.2233 110.135 47.3433 101.111 47.8233 90.7431C48.3993 84.8871 45.9033 80.3751 42.1593 75.9591Z" fill="var(--fill-0, white)"/>
<path d="M102.553 152.471C108.025 154.967 111.481 149.687 113.401 153.239C114.745 155.639 107.929 157.751 100.345 154.775C86.4251 149.303 81.7211 127.223 92.2811 96.4071C91.9931 96.4071 91.9931 96.4071 91.9931 96.4071C89.6891 102.167 80.6651 112.823 72.0251 112.823C64.2491 112.823 60.8891 105.527 60.8891 99.5751C60.8891 84.5991 76.9211 63.1911 89.2091 63.1911C91.3211 63.1911 98.7131 64.3431 98.7131 74.3271C98.7131 74.6151 98.7131 74.9991 98.7131 75.2871C101.881 66.6471 105.049 64.6311 109.561 64.2471C109.561 64.2471 111.097 64.3431 111.097 64.8231C111.097 64.9191 111.001 65.0151 110.809 65.2071C108.121 67.5111 105.625 75.7671 105.625 75.7671C87.1931 123.671 90.5531 146.999 102.553 152.471ZM74.1371 106.679C74.9051 106.871 75.6731 106.967 76.4411 106.967C88.8251 106.967 96.2171 83.9271 96.2171 76.1511C96.2171 70.1991 94.2011 66.9351 90.3611 66.9351C81.4331 66.9351 71.9291 83.2551 70.0091 91.5111C69.5291 93.7191 69.1451 95.8311 69.1451 97.9431C69.1451 102.167 70.5851 105.815 74.1371 106.679Z" fill="var(--fill-0, white)"/>
<path d="M164.377 34.0071C168.889 38.5191 167.737 46.6791 164.953 52.1511C164.185 53.5911 162.553 54.6471 160.825 54.6471C158.233 54.6471 156.121 52.5351 156.121 49.9431C156.121 47.3511 158.233 45.2391 160.825 45.2391C160.825 45.2391 164.569 45.3351 164.665 41.9751C164.473 38.8071 163.609 36.8871 162.553 35.6391C160.057 32.8551 156.121 31.8951 152.185 31.7991C144.409 31.7991 139.225 39.8631 136.537 47.3511C135.385 50.4231 133.849 55.6071 131.161 63.9591C137.977 63.9591 144.889 63.9591 151.993 63.9591C163.609 63.9591 159.577 74.2311 157.273 79.9911C154.969 85.6551 148.345 101.687 148.345 101.687C148.345 101.687 145.945 107.927 150.937 108.215C154.873 108.407 156.601 104.567 158.329 101.687C158.329 101.687 159.097 100.727 159.961 101.111C160.633 101.399 160.537 102.071 160.345 102.551C158.233 108.119 151.321 115.127 144.217 113.207C135.961 110.903 143.353 95.8311 144.793 92.4711C146.233 89.1111 151.321 77.6871 151.321 77.6871C151.321 77.6871 156.313 68.0871 149.209 67.7991H130.201C130.201 67.7991 130.297 67.0311 125.593 81.1431C123.577 87.4791 121.369 94.1991 119.257 100.631C108.409 136.055 86.2331 177.719 49.6571 190.295C35.8331 194.903 3.86506 198.167 0.313059 176.375C-2.56694 159.191 15.0011 147.575 29.3051 142.391C36.1211 139.799 41.2091 138.743 44.9531 139.031C46.2011 139.223 47.7371 139.895 46.7771 142.007C45.8171 144.023 43.5131 142.871 43.5131 142.871C39.8651 141.623 36.3131 142.295 32.6651 143.159C20.2811 147.095 3.48106 160.151 7.60907 175.223C12.2171 191.735 34.1051 193.463 47.7371 189.143C81.9131 177.431 100.729 138.263 112.633 100.631C115.513 91.1271 117.817 83.6391 120.025 76.7271C121.561 71.4471 120.313 67.7991 115.321 67.7991H113.113C113.113 67.7991 111.577 67.7031 111.577 65.7831C111.673 63.7671 113.113 63.9591 113.113 63.9591H123.961C124.441 62.2311 124.729 61.2711 124.729 61.2711C124.729 61.2711 129.529 47.2551 133.849 41.3031C138.169 35.2551 143.737 29.8791 152.185 29.3991C157.753 29.3991 161.209 30.8391 164.377 34.0071Z" fill="var(--fill-0, white)"/>
</g>
</svg>
